<svg id="visual" viewBox="0 0 900 600" width="900" height="600" xmlns="http://www.w3.org/2000/svg" xmlns:xlink="http://www.w3.org/1999/xlink" version="1.1"><g stroke-width="1" stroke-linejoin="bevel"><path d="M460 311L414 314L460 389Z" fill="#19435d" stroke="#19435d"></path><path d="M414 314L389 373L460 389Z" fill="#15384f" stroke="#15384f"></path><path d="M414 314L316 366L389 373Z" fill="#00101c" stroke="#00101c"></path><path d="M389 373L385 500L460 389Z" fill="#081a28" stroke="#081a28"></path><path d="M385 170L324 270L414 314Z" fill="#0c2435" stroke="#0c2435"></path><path d="M414 314L324 270L316 366Z" fill="#1d4e6b" stroke="#1d4e6b"></path><path d="M627 283L527 236L460 311Z" fill="#15384f" stroke="#15384f"></path><path d="M460 311L385 170L414 314Z" fill="#081a28" stroke="#081a28"></path><path d="M338 504L385 500L389 373Z" fill="#0c2435" stroke="#0c2435"></path><path d="M316 366L338 504L389 373Z" fill="#1d4e6b" stroke="#1d4e6b"></path><path d="M385 170L290 238L324 270Z" fill="#19435d" stroke="#19435d"></path><path d="M324 270L290 238L316 366Z" fill="#15384f" stroke="#15384f"></path><path d="M316 366L183 415L338 504Z" fill="#081a28" stroke="#081a28"></path><path d="M527 236L385 170L460 311Z" fill="#1d4e6b" stroke="#1d4e6b"></path><path d="M405 600L470 536L385 500Z" fill="#277297" stroke="#277297"></path><path d="M385 500L470 536L460 389Z" fill="#277297" stroke="#277297"></path><path d="M460 389L627 283L460 311Z" fill="#19435d" stroke="#19435d"></path><path d="M630 425L627 283L460 389Z" fill="#246688" stroke="#246688"></path><path d="M603 480L630 425L460 389Z" fill="#081a28" stroke="#081a28"></path><path d="M470 536L603 480L460 389Z" fill="#246688" stroke="#246688"></path><path d="M615 176L560 139L527 236Z" fill="#112e42" stroke="#112e42"></path><path d="M527 236L514 112L385 170Z" fill="#00101c" stroke="#00101c"></path><path d="M627 283L615 176L527 236Z" fill="#0c2435" stroke="#0c2435"></path><path d="M560 139L514 112L527 236Z" fill="#15384f" stroke="#15384f"></path><path d="M338 504L405 600L385 500Z" fill="#081a28" stroke="#081a28"></path><path d="M470 536L578 600L603 480Z" fill="#1d4e6b" stroke="#1d4e6b"></path><path d="M514 112L387 98L385 170Z" fill="#246688" stroke="#246688"></path><path d="M385 170L263 98L290 238Z" fill="#1d4e6b" stroke="#1d4e6b"></path><path d="M405 600L506 600L470 536Z" fill="#246688" stroke="#246688"></path><path d="M710 415L698 309L630 425Z" fill="#19435d" stroke="#19435d"></path><path d="M630 425L698 309L627 283Z" fill="#1d4e6b" stroke="#1d4e6b"></path><path d="M627 283L667 168L615 176Z" fill="#081a28" stroke="#081a28"></path><path d="M166 329L183 415L316 366Z" fill="#19435d" stroke="#19435d"></path><path d="M338 504L279 600L405 600Z" fill="#00101c" stroke="#00101c"></path><path d="M664 600L672 494L603 480Z" fill="#19435d" stroke="#19435d"></path><path d="M603 480L672 494L630 425Z" fill="#081a28" stroke="#081a28"></path><path d="M161 217L166 329L290 238Z" fill="#081a28" stroke="#081a28"></path><path d="M290 238L166 329L316 366Z" fill="#297ea6" stroke="#297ea6"></path><path d="M672 494L710 415L630 425Z" fill="#277297" stroke="#277297"></path><path d="M506 600L578 600L470 536Z" fill="#112e42" stroke="#112e42"></path><path d="M615 176L678 94L560 139Z" fill="#0c2435" stroke="#0c2435"></path><path d="M560 139L578 0L514 112Z" fill="#1d4e6b" stroke="#1d4e6b"></path><path d="M698 309L667 168L627 283Z" fill="#297ea6" stroke="#297ea6"></path><path d="M192 517L279 600L338 504Z" fill="#277297" stroke="#277297"></path><path d="M111 468L192 517L183 415Z" fill="#19435d" stroke="#19435d"></path><path d="M183 415L192 517L338 504Z" fill="#0c2435" stroke="#0c2435"></path><path d="M387 98L263 98L385 170Z" fill="#081a28" stroke="#081a28"></path><path d="M263 98L161 217L290 238Z" fill="#1d4e6b" stroke="#1d4e6b"></path><path d="M161 217L121 305L166 329Z" fill="#19435d" stroke="#19435d"></path><path d="M166 329L105 360L183 415Z" fill="#246688" stroke="#246688"></path><path d="M710 415L762 366L698 309Z" fill="#19435d" stroke="#19435d"></path><path d="M698 309L783 194L667 168Z" fill="#0c2435" stroke="#0c2435"></path><path d="M771 520L762 366L710 415Z" fill="#15384f" stroke="#15384f"></path><path d="M192 517L234 600L279 600Z" fill="#0c2435" stroke="#0c2435"></path><path d="M121 305L105 360L166 329Z" fill="#205a7a" stroke="#205a7a"></path><path d="M192 517L87 600L234 600Z" fill="#1d4e6b" stroke="#1d4e6b"></path><path d="M578 600L664 600L603 480Z" fill="#297ea6" stroke="#297ea6"></path><path d="M672 494L771 520L710 415Z" fill="#15384f" stroke="#15384f"></path><path d="M320 0L222 82L263 98Z" fill="#112e42" stroke="#112e42"></path><path d="M263 98L222 82L161 217Z" fill="#246688" stroke="#246688"></path><path d="M161 217L72 198L121 305Z" fill="#246688" stroke="#246688"></path><path d="M105 360L111 468L183 415Z" fill="#246688" stroke="#246688"></path><path d="M783 194L678 94L667 168Z" fill="#081a28" stroke="#081a28"></path><path d="M667 168L678 94L615 176Z" fill="#277297" stroke="#277297"></path><path d="M514 112L429 0L387 98Z" fill="#246688" stroke="#246688"></path><path d="M387 98L320 0L263 98Z" fill="#277297" stroke="#277297"></path><path d="M485 0L429 0L514 112Z" fill="#112e42" stroke="#112e42"></path><path d="M578 0L485 0L514 112Z" fill="#205a7a" stroke="#205a7a"></path><path d="M429 0L320 0L387 98Z" fill="#00101c" stroke="#00101c"></path><path d="M664 600L771 520L672 494Z" fill="#297ea6" stroke="#297ea6"></path><path d="M678 94L578 0L560 139Z" fill="#19435d" stroke="#19435d"></path><path d="M826 300L783 194L698 309Z" fill="#205a7a" stroke="#205a7a"></path><path d="M826 300L698 309L762 366Z" fill="#15384f" stroke="#15384f"></path><path d="M900 321L826 300L900 393Z" fill="#277297" stroke="#277297"></path><path d="M95 113L72 198L161 217Z" fill="#1d4e6b" stroke="#1d4e6b"></path><path d="M0 262L0 413L105 360Z" fill="#277297" stroke="#277297"></path><path d="M0 503L87 600L111 468Z" fill="#0c2435" stroke="#0c2435"></path><path d="M95 113L161 217L222 82Z" fill="#15384f" stroke="#15384f"></path><path d="M132 0L95 113L222 82Z" fill="#297ea6" stroke="#297ea6"></path><path d="M320 0L190 0L222 82Z" fill="#277297" stroke="#277297"></path><path d="M0 413L111 468L105 360Z" fill="#15384f" stroke="#15384f"></path><path d="M111 468L87 600L192 517Z" fill="#205a7a" stroke="#205a7a"></path><path d="M831 88L678 94L783 194Z" fill="#277297" stroke="#277297"></path><path d="M831 88L706 0L678 94Z" fill="#246688" stroke="#246688"></path><path d="M678 94L706 0L578 0Z" fill="#00101c" stroke="#00101c"></path><path d="M0 262L105 360L121 305Z" fill="#081a28" stroke="#081a28"></path><path d="M0 262L121 305L72 198Z" fill="#205a7a" stroke="#205a7a"></path><path d="M664 600L807 600L771 520Z" fill="#297ea6" stroke="#297ea6"></path><path d="M900 393L826 300L762 366Z" fill="#0c2435" stroke="#0c2435"></path><path d="M0 214L0 262L72 198Z" fill="#205a7a" stroke="#205a7a"></path><path d="M0 65L72 198L95 113Z" fill="#277297" stroke="#277297"></path><path d="M0 65L0 214L72 198Z" fill="#15384f" stroke="#15384f"></path><path d="M900 393L762 366L771 520Z" fill="#297ea6" stroke="#297ea6"></path><path d="M826 300L900 165L783 194Z" fill="#297ea6" stroke="#297ea6"></path><path d="M900 495L900 393L771 520Z" fill="#0c2435" stroke="#0c2435"></path><path d="M0 413L0 503L111 468Z" fill="#277297" stroke="#277297"></path><path d="M190 0L132 0L222 82Z" fill="#246688" stroke="#246688"></path><path d="M900 165L831 88L783 194Z" fill="#15384f" stroke="#15384f"></path><path d="M807 600L900 495L771 520Z" fill="#15384f" stroke="#15384f"></path><path d="M900 321L900 165L826 300Z" fill="#1d4e6b" stroke="#1d4e6b"></path><path d="M0 503L0 600L87 600Z" fill="#1d4e6b" stroke="#1d4e6b"></path><path d="M900 0L805 0L831 88Z" fill="#205a7a" stroke="#205a7a"></path><path d="M831 88L805 0L706 0Z" fill="#0c2435" stroke="#0c2435"></path><path d="M900 165L900 114L831 88Z" fill="#00101c" stroke="#00101c"></path><path d="M132 0L0 65L95 113Z" fill="#112e42" stroke="#112e42"></path><path d="M807 600L900 600L900 495Z" fill="#0c2435" stroke="#0c2435"></path><path d="M132 0L0 0L0 65Z" fill="#15384f" stroke="#15384f"></path><path d="M900 114L900 0L831 88Z" fill="#081a28" stroke="#081a28"></path></g></svg>