<svg id="visual" viewBox="0 0 900 600" width="900" height="600" xmlns="http://www.w3.org/2000/svg" xmlns:xlink="http://www.w3.org/1999/xlink" version="1.1"><g stroke-width="1" stroke-linejoin="bevel"><path d="M442.7 290.1L496.7 252.9L435.3 270.9Z" fill="#081a28" stroke="#081a28"></path><path d="M496.7 252.9L442.3 231.8L435.3 270.9Z" fill="#277297" stroke="#277297"></path><path d="M496.7 252.9L506.7 222.8L442.3 231.8Z" fill="#246688" stroke="#246688"></path><path d="M442.7 290.1L496.7 329.2L496.7 252.9Z" fill="#205a7a" stroke="#205a7a"></path><path d="M496.7 252.9L542.1 243.9L506.7 222.8Z" fill="#00101c" stroke="#00101c"></path><path d="M442.3 231.8L399.9 248.8L435.3 270.9Z" fill="#00101c" stroke="#00101c"></path><path d="M435.3 270.9L399.9 248.8L442.7 290.1Z" fill="#277297" stroke="#277297"></path><path d="M462.3 143.5L410.3 222.6L442.3 231.8Z" fill="#205a7a" stroke="#205a7a"></path><path d="M442.3 231.8L410.3 222.6L399.9 248.8Z" fill="#19435d" stroke="#19435d"></path><path d="M496.7 329.2L543.4 254.8L496.7 252.9Z" fill="#297ea6" stroke="#297ea6"></path><path d="M543.4 254.8L542.1 243.9L496.7 252.9Z" fill="#277297" stroke="#277297"></path><path d="M410.3 222.6L386.9 240.9L399.9 248.8Z" fill="#081a28" stroke="#081a28"></path><path d="M410.9 354.2L426.3 354.2L442.7 290.1Z" fill="#297ea6" stroke="#297ea6"></path><path d="M410.9 354.2L442.7 290.1L348.9 328.1Z" fill="#112e42" stroke="#112e42"></path><path d="M442.7 290.1L426.3 354.2L496.7 329.2Z" fill="#112e42" stroke="#112e42"></path><path d="M499.1 394.2L543.1 333.1L496.7 329.2Z" fill="#297ea6" stroke="#297ea6"></path><path d="M496.7 329.2L543.1 333.1L543.4 254.8Z" fill="#1d4e6b" stroke="#1d4e6b"></path><path d="M551.1 197.8L517.1 179.6L506.7 222.8Z" fill="#19435d" stroke="#19435d"></path><path d="M506.7 222.8L504.7 160.6L442.3 231.8Z" fill="#297ea6" stroke="#297ea6"></path><path d="M348.9 328.1L442.7 290.1L399.9 248.8Z" fill="#277297" stroke="#277297"></path><path d="M584.4 223.6L551.1 197.8L542.1 243.9Z" fill="#277297" stroke="#277297"></path><path d="M542.1 243.9L551.1 197.8L506.7 222.8Z" fill="#277297" stroke="#277297"></path><path d="M584.4 223.6L542.1 243.9L543.4 254.8Z" fill="#081a28" stroke="#081a28"></path><path d="M434.7 400.4L453.3 380.4L426.3 354.2Z" fill="#205a7a" stroke="#205a7a"></path><path d="M426.3 354.2L453.3 380.4L496.7 329.2Z" fill="#15384f" stroke="#15384f"></path><path d="M543.1 333.1L575.8 305.1L543.4 254.8Z" fill="#297ea6" stroke="#297ea6"></path><path d="M569.4 176.5L511.1 163.5L517.1 179.6Z" fill="#19435d" stroke="#19435d"></path><path d="M517.1 179.6L504.7 160.6L506.7 222.8Z" fill="#112e42" stroke="#112e42"></path><path d="M511.1 163.5L504.7 160.6L517.1 179.6Z" fill="#277297" stroke="#277297"></path><path d="M341.6 263.8L351.6 261.9L323.2 242.9Z" fill="#246688" stroke="#246688"></path><path d="M386.9 240.9L351.6 261.9L399.9 248.8Z" fill="#205a7a" stroke="#205a7a"></path><path d="M575.8 305.1L584.4 284.1L543.4 254.8Z" fill="#205a7a" stroke="#205a7a"></path><path d="M569.4 176.5L508.7 156.5L511.1 163.5Z" fill="#112e42" stroke="#112e42"></path><path d="M511.1 163.5L508.7 156.5L504.7 160.6Z" fill="#0c2435" stroke="#0c2435"></path><path d="M504.7 160.6L462.3 143.5L442.3 231.8Z" fill="#0c2435" stroke="#0c2435"></path><path d="M410.3 222.6L320.2 201.6L386.9 240.9Z" fill="#19435d" stroke="#19435d"></path><path d="M348.9 328.1L387.3 361.1L410.9 354.2Z" fill="#1d4e6b" stroke="#1d4e6b"></path><path d="M410.9 354.2L434.7 400.4L426.3 354.2Z" fill="#112e42" stroke="#112e42"></path><path d="M599.4 239.9L584.4 223.6L543.4 254.8Z" fill="#277297" stroke="#277297"></path><path d="M551.1 197.8L569.4 176.5L517.1 179.6Z" fill="#277297" stroke="#277297"></path><path d="M508.7 156.5L462.3 143.5L504.7 160.6Z" fill="#1d4e6b" stroke="#1d4e6b"></path><path d="M323.2 242.9L351.6 261.9L386.9 240.9Z" fill="#112e42" stroke="#112e42"></path><path d="M351.6 261.9L348.9 328.1L399.9 248.8Z" fill="#297ea6" stroke="#297ea6"></path><path d="M452.7 422.5L499.1 394.2L453.3 380.4Z" fill="#246688" stroke="#246688"></path><path d="M453.3 380.4L499.1 394.2L496.7 329.2Z" fill="#297ea6" stroke="#297ea6"></path><path d="M543.1 333.1L593.4 351.2L575.8 305.1Z" fill="#112e42" stroke="#112e42"></path><path d="M334.6 300.1L348.9 328.1L351.6 261.9Z" fill="#00101c" stroke="#00101c"></path><path d="M584.4 284.1L599.4 239.9L543.4 254.8Z" fill="#1d4e6b" stroke="#1d4e6b"></path><path d="M387.3 361.1L434.7 400.4L410.9 354.2Z" fill="#15384f" stroke="#15384f"></path><path d="M341.6 263.8L334.6 300.1L351.6 261.9Z" fill="#0c2435" stroke="#0c2435"></path><path d="M462.3 143.5L404.9 147.6L410.3 222.6Z" fill="#205a7a" stroke="#205a7a"></path><path d="M599.8 168.5L569.4 176.5L584.4 223.6Z" fill="#297ea6" stroke="#297ea6"></path><path d="M584.4 223.6L569.4 176.5L551.1 197.8Z" fill="#19435d" stroke="#19435d"></path><path d="M320.2 201.6L323.2 242.9L386.9 240.9Z" fill="#19435d" stroke="#19435d"></path><path d="M341.6 263.8L323.2 242.9L334.6 300.1Z" fill="#205a7a" stroke="#205a7a"></path><path d="M552.4 395.4L593.4 351.2L543.1 333.1Z" fill="#277297" stroke="#277297"></path><path d="M630.8 297.9L629.2 286.9L584.4 284.1Z" fill="#15384f" stroke="#15384f"></path><path d="M584.4 284.1L629.2 286.9L599.4 239.9Z" fill="#205a7a" stroke="#205a7a"></path><path d="M334.6 300.1L332.6 337.2L348.9 328.1Z" fill="#00101c" stroke="#00101c"></path><path d="M348.9 328.1L332.6 337.2L387.3 361.1Z" fill="#081a28" stroke="#081a28"></path><path d="M387.3 361.1L367.9 421.4L434.7 400.4Z" fill="#277297" stroke="#277297"></path><path d="M313.2 379.2L332.6 337.2L246.2 330.1Z" fill="#112e42" stroke="#112e42"></path><path d="M517.1 451.4L552.4 395.4L499.1 394.2Z" fill="#112e42" stroke="#112e42"></path><path d="M499.1 394.2L552.4 395.4L543.1 333.1Z" fill="#1d4e6b" stroke="#1d4e6b"></path><path d="M413.3 465.5L452.7 422.5L434.7 400.4Z" fill="#277297" stroke="#277297"></path><path d="M434.7 400.4L452.7 422.5L453.3 380.4Z" fill="#15384f" stroke="#15384f"></path><path d="M402.9 105.3L380.9 135.5L404.9 147.6Z" fill="#1d4e6b" stroke="#1d4e6b"></path><path d="M404.9 147.6L320.2 201.6L410.3 222.6Z" fill="#0c2435" stroke="#0c2435"></path><path d="M630.8 297.9L584.4 284.1L575.8 305.1Z" fill="#246688" stroke="#246688"></path><path d="M629.8 214.8L599.8 168.5L584.4 223.6Z" fill="#246688" stroke="#246688"></path><path d="M380.9 135.5L320.2 201.6L404.9 147.6Z" fill="#277297" stroke="#277297"></path><path d="M593.4 351.2L630.8 297.9L575.8 305.1Z" fill="#205a7a" stroke="#205a7a"></path><path d="M629.8 214.8L584.4 223.6L599.4 239.9Z" fill="#205a7a" stroke="#205a7a"></path><path d="M595.4 112.3L501.1 83.3L508.7 156.5Z" fill="#081a28" stroke="#081a28"></path><path d="M468.7 92.3L436.3 101.3L462.3 143.5Z" fill="#297ea6" stroke="#297ea6"></path><path d="M552.4 395.4L588.8 385.2L593.4 351.2Z" fill="#246688" stroke="#246688"></path><path d="M593.4 351.2L648.2 311.1L630.8 297.9Z" fill="#112e42" stroke="#112e42"></path><path d="M697.2 245.8L629.8 214.8L629.2 286.9Z" fill="#297ea6" stroke="#297ea6"></path><path d="M629.2 286.9L629.8 214.8L599.4 239.9Z" fill="#297ea6" stroke="#297ea6"></path><path d="M468.7 92.3L462.3 143.5L508.7 156.5Z" fill="#0c2435" stroke="#0c2435"></path><path d="M462.3 143.5L436.3 101.3L404.9 147.6Z" fill="#15384f" stroke="#15384f"></path><path d="M349.6 119.5L309.6 196.6L320.2 201.6Z" fill="#1d4e6b" stroke="#1d4e6b"></path><path d="M320.2 201.6L298.2 211.8L323.2 242.9Z" fill="#277297" stroke="#277297"></path><path d="M323.2 242.9L252.8 282.9L334.6 300.1Z" fill="#0c2435" stroke="#0c2435"></path><path d="M436.3 101.3L402.9 105.3L404.9 147.6Z" fill="#112e42" stroke="#112e42"></path><path d="M380.9 135.5L349.6 119.5L320.2 201.6Z" fill="#112e42" stroke="#112e42"></path><path d="M501.1 83.3L468.7 92.3L508.7 156.5Z" fill="#246688" stroke="#246688"></path><path d="M436.3 101.3L418.3 77.2L402.9 105.3Z" fill="#205a7a" stroke="#205a7a"></path><path d="M309.6 196.6L298.2 211.8L320.2 201.6Z" fill="#246688" stroke="#246688"></path><path d="M313.2 379.2L367.9 421.4L387.3 361.1Z" fill="#1d4e6b" stroke="#1d4e6b"></path><path d="M677.2 402.2L648.2 311.1L593.4 351.2Z" fill="#112e42" stroke="#112e42"></path><path d="M630.8 297.9L648.2 311.1L629.2 286.9Z" fill="#15384f" stroke="#15384f"></path><path d="M629.8 214.8L622.8 164.6L599.8 168.5Z" fill="#1d4e6b" stroke="#1d4e6b"></path><path d="M595.4 112.3L508.7 156.5L569.4 176.5Z" fill="#112e42" stroke="#112e42"></path><path d="M658.2 147.6L622.8 164.6L629.8 214.8Z" fill="#277297" stroke="#277297"></path><path d="M452.7 422.5L517.1 451.4L499.1 394.2Z" fill="#277297" stroke="#277297"></path><path d="M552.4 395.4L601.8 407.4L588.8 385.2Z" fill="#15384f" stroke="#15384f"></path><path d="M494.1 496.5L517.1 451.4L452.7 422.5Z" fill="#19435d" stroke="#19435d"></path><path d="M595.4 112.3L569.4 176.5L599.8 168.5Z" fill="#19435d" stroke="#19435d"></path><path d="M468.7 92.3L418.3 77.2L436.3 101.3Z" fill="#1d4e6b" stroke="#1d4e6b"></path><path d="M246.2 330.1L332.6 337.2L334.6 300.1Z" fill="#246688" stroke="#246688"></path><path d="M332.6 337.2L313.2 379.2L387.3 361.1Z" fill="#297ea6" stroke="#297ea6"></path><path d="M402.9 105.3L349.6 119.5L380.9 135.5Z" fill="#00101c" stroke="#00101c"></path><path d="M260.2 162.5L269.8 221.8L298.2 211.8Z" fill="#297ea6" stroke="#297ea6"></path><path d="M555.4 491.5L601.8 407.4L552.4 395.4Z" fill="#1d4e6b" stroke="#1d4e6b"></path><path d="M588.8 385.2L601.8 407.4L593.4 351.2Z" fill="#19435d" stroke="#19435d"></path><path d="M481.7 16.2L418.3 77.2L468.7 92.3Z" fill="#00101c" stroke="#00101c"></path><path d="M357.9 25.2L308.6 62.2L349.6 119.5Z" fill="#205a7a" stroke="#205a7a"></path><path d="M622.8 164.6L595.4 112.3L599.8 168.5Z" fill="#297ea6" stroke="#297ea6"></path><path d="M348.9 481.5L413.3 465.5L367.9 421.4Z" fill="#081a28" stroke="#081a28"></path><path d="M367.9 421.4L413.3 465.5L434.7 400.4Z" fill="#205a7a" stroke="#205a7a"></path><path d="M260.2 162.5L298.2 211.8L309.6 196.6Z" fill="#297ea6" stroke="#297ea6"></path><path d="M298.2 211.8L269.8 221.8L323.2 242.9Z" fill="#205a7a" stroke="#205a7a"></path><path d="M269.8 221.8L252.8 282.9L323.2 242.9Z" fill="#277297" stroke="#277297"></path><path d="M694.5 300.1L693.5 271.9L648.2 311.1Z" fill="#277297" stroke="#277297"></path><path d="M648.2 311.1L693.5 271.9L629.2 286.9Z" fill="#112e42" stroke="#112e42"></path><path d="M622.8 164.6L658.2 147.6L595.4 112.3Z" fill="#205a7a" stroke="#205a7a"></path><path d="M725.5 187.6L658.2 147.6L629.8 214.8Z" fill="#15384f" stroke="#15384f"></path><path d="M294.6 419.4L313.2 436.4L313.2 379.2Z" fill="#297ea6" stroke="#297ea6"></path><path d="M313.2 379.2L313.2 436.4L367.9 421.4Z" fill="#081a28" stroke="#081a28"></path><path d="M411.3 518.7L440.7 495.7L413.3 465.5Z" fill="#15384f" stroke="#15384f"></path><path d="M413.3 465.5L440.7 495.7L452.7 422.5Z" fill="#246688" stroke="#246688"></path><path d="M517.1 451.4L555.4 491.5L552.4 395.4Z" fill="#277297" stroke="#277297"></path><path d="M705.5 346.2L694.5 300.1L648.2 311.1Z" fill="#15384f" stroke="#15384f"></path><path d="M440.7 495.7L494.1 496.5L452.7 422.5Z" fill="#0c2435" stroke="#0c2435"></path><path d="M246.2 330.1L294.6 419.4L313.2 379.2Z" fill="#19435d" stroke="#19435d"></path><path d="M252.8 282.9L246.2 330.1L334.6 300.1Z" fill="#277297" stroke="#277297"></path><path d="M699.5 240.8L766.9 249.9L750.9 220.8Z" fill="#246688" stroke="#246688"></path><path d="M693.5 271.9L697.2 245.8L629.2 286.9Z" fill="#19435d" stroke="#19435d"></path><path d="M305.2 75.2L304.2 105.3L349.6 119.5Z" fill="#297ea6" stroke="#297ea6"></path><path d="M349.6 119.5L304.2 105.3L309.6 196.6Z" fill="#277297" stroke="#277297"></path><path d="M699.5 240.8L697.2 245.8L766.9 249.9Z" fill="#15384f" stroke="#15384f"></path><path d="M697.2 245.8L699.5 240.8L629.8 214.8Z" fill="#277297" stroke="#277297"></path><path d="M304.2 105.3L260.2 162.5L309.6 196.6Z" fill="#0c2435" stroke="#0c2435"></path><path d="M212.5 249.8L226.5 283.1L252.8 282.9Z" fill="#15384f" stroke="#15384f"></path><path d="M252.8 282.9L226.5 283.1L246.2 330.1Z" fill="#00101c" stroke="#00101c"></path><path d="M494.1 496.5L555.4 491.5L517.1 451.4Z" fill="#1d4e6b" stroke="#1d4e6b"></path><path d="M601.8 407.4L677.2 402.2L593.4 351.2Z" fill="#297ea6" stroke="#297ea6"></path><path d="M621.8 492.5L653.2 421.5L601.8 407.4Z" fill="#277297" stroke="#277297"></path><path d="M212.5 249.8L252.8 282.9L269.8 221.8Z" fill="#246688" stroke="#246688"></path><path d="M347.6 487.5L348.9 481.5L313.2 436.4Z" fill="#0c2435" stroke="#0c2435"></path><path d="M313.2 436.4L348.9 481.5L367.9 421.4Z" fill="#15384f" stroke="#15384f"></path><path d="M629.8 76.3L610.8 67.2L595.4 112.3Z" fill="#297ea6" stroke="#297ea6"></path><path d="M595.4 112.3L572.4 43.2L501.1 83.3Z" fill="#205a7a" stroke="#205a7a"></path><path d="M501.1 83.3L481.7 16.2L468.7 92.3Z" fill="#112e42" stroke="#112e42"></path><path d="M653.2 421.5L677.2 402.2L601.8 407.4Z" fill="#246688" stroke="#246688"></path><path d="M675.5 112.3L652.2 102.5L658.2 147.6Z" fill="#19435d" stroke="#19435d"></path><path d="M658.2 147.6L652.2 102.5L595.4 112.3Z" fill="#112e42" stroke="#112e42"></path><path d="M610.8 67.2L572.4 43.2L595.4 112.3Z" fill="#081a28" stroke="#081a28"></path><path d="M330.6 525.8L347.6 487.5L272.8 504.7Z" fill="#081a28" stroke="#081a28"></path><path d="M368.9 518.7L411.3 518.7L413.3 465.5Z" fill="#205a7a" stroke="#205a7a"></path><path d="M677.2 402.2L705.5 346.2L648.2 311.1Z" fill="#15384f" stroke="#15384f"></path><path d="M750.9 220.8L725.5 187.6L699.5 240.8Z" fill="#19435d" stroke="#19435d"></path><path d="M652.2 102.5L629.8 76.3L595.4 112.3Z" fill="#1d4e6b" stroke="#1d4e6b"></path><path d="M610.8 67.2L592.8 0L572.4 43.2Z" fill="#205a7a" stroke="#205a7a"></path><path d="M308.6 62.2L305.2 75.2L349.6 119.5Z" fill="#00101c" stroke="#00101c"></path><path d="M258.8 98.3L234.8 136.5L260.2 162.5Z" fill="#15384f" stroke="#15384f"></path><path d="M349.6 119.5L402.9 105.3L357.9 25.2Z" fill="#246688" stroke="#246688"></path><path d="M547.1 11.2L481.7 16.2L501.1 83.3Z" fill="#297ea6" stroke="#297ea6"></path><path d="M368.9 518.7L413.3 465.5L348.9 481.5Z" fill="#081a28" stroke="#081a28"></path><path d="M440.7 495.7L482.7 573.8L494.1 496.5Z" fill="#19435d" stroke="#19435d"></path><path d="M545.1 523.7L571.4 513.7L555.4 491.5Z" fill="#081a28" stroke="#081a28"></path><path d="M205.5 236.9L269.8 221.8L208.8 162.6Z" fill="#277297" stroke="#277297"></path><path d="M205.5 236.9L212.5 249.8L269.8 221.8Z" fill="#19435d" stroke="#19435d"></path><path d="M226.5 283.1L206.8 318.1L246.2 330.1Z" fill="#246688" stroke="#246688"></path><path d="M653.2 421.5L683.5 410.4L677.2 402.2Z" fill="#00101c" stroke="#00101c"></path><path d="M677.2 402.2L683.5 410.4L705.5 346.2Z" fill="#297ea6" stroke="#297ea6"></path><path d="M702.2 432.4L683.5 410.4L653.2 421.5Z" fill="#15384f" stroke="#15384f"></path><path d="M737.5 169.5L675.5 112.3L658.2 147.6Z" fill="#205a7a" stroke="#205a7a"></path><path d="M676.2 101.3L626.2 62.2L629.8 76.3Z" fill="#205a7a" stroke="#205a7a"></path><path d="M676.2 101.3L629.8 76.3L652.2 102.5Z" fill="#00101c" stroke="#00101c"></path><path d="M629.8 76.3L626.2 62.2L610.8 67.2Z" fill="#15384f" stroke="#15384f"></path><path d="M357.9 25.2L402.9 105.3L418.3 77.2Z" fill="#0c2435" stroke="#0c2435"></path><path d="M258.8 98.3L260.2 162.5L304.2 105.3Z" fill="#1d4e6b" stroke="#1d4e6b"></path><path d="M208.8 162.6L269.8 221.8L260.2 162.5Z" fill="#297ea6" stroke="#297ea6"></path><path d="M212.5 249.8L206.8 318.1L226.5 283.1Z" fill="#0c2435" stroke="#0c2435"></path><path d="M545.1 523.7L555.4 491.5L494.1 496.5Z" fill="#205a7a" stroke="#205a7a"></path><path d="M555.4 491.5L621.8 492.5L601.8 407.4Z" fill="#1d4e6b" stroke="#1d4e6b"></path><path d="M545.1 555.8L545.1 523.7L482.7 573.8Z" fill="#19435d" stroke="#19435d"></path><path d="M128.1 286.9L206.8 318.1L212.5 249.8Z" fill="#081a28" stroke="#081a28"></path><path d="M235.8 442.4L253.2 446.5L294.6 419.4Z" fill="#00101c" stroke="#00101c"></path><path d="M374.9 537.8L368.9 518.7L360.6 543.7Z" fill="#246688" stroke="#246688"></path><path d="M756.9 101.3L676.2 101.3L675.5 112.3Z" fill="#277297" stroke="#277297"></path><path d="M675.5 112.3L676.2 101.3L652.2 102.5Z" fill="#15384f" stroke="#15384f"></path><path d="M402.9 0L357.9 25.2L418.3 77.2Z" fill="#246688" stroke="#246688"></path><path d="M357.9 25.2L303.6 57.3L308.6 62.2Z" fill="#297ea6" stroke="#297ea6"></path><path d="M308.6 62.2L303.6 57.3L305.2 75.2Z" fill="#277297" stroke="#277297"></path><path d="M347.6 487.5L368.9 518.7L348.9 481.5Z" fill="#081a28" stroke="#081a28"></path><path d="M482.7 573.8L545.1 523.7L494.1 496.5Z" fill="#205a7a" stroke="#205a7a"></path><path d="M253.2 446.5L313.2 436.4L294.6 419.4Z" fill="#00101c" stroke="#00101c"></path><path d="M258.8 98.3L304.2 105.3L305.2 75.2Z" fill="#246688" stroke="#246688"></path><path d="M547.1 11.2L486.1 0L481.7 16.2Z" fill="#15384f" stroke="#15384f"></path><path d="M481.7 16.2L437.7 0L418.3 77.2Z" fill="#0c2435" stroke="#0c2435"></path><path d="M547.1 11.2L501.1 83.3L572.4 43.2Z" fill="#1d4e6b" stroke="#1d4e6b"></path><path d="M557.4 0L547.1 11.2L572.4 43.2Z" fill="#0c2435" stroke="#0c2435"></path><path d="M766.9 249.9L693.5 271.9L694.5 300.1Z" fill="#00101c" stroke="#00101c"></path><path d="M699.5 240.8L725.5 187.6L629.8 214.8Z" fill="#277297" stroke="#277297"></path><path d="M303.6 57.3L258.8 98.3L305.2 75.2Z" fill="#112e42" stroke="#112e42"></path><path d="M486.1 0L437.7 0L481.7 16.2Z" fill="#15384f" stroke="#15384f"></path><path d="M571.4 513.7L621.8 492.5L555.4 491.5Z" fill="#1d4e6b" stroke="#1d4e6b"></path><path d="M776.3 352.1L731.9 334.1L774.9 382.4Z" fill="#15384f" stroke="#15384f"></path><path d="M705.5 346.2L731.9 334.1L694.5 300.1Z" fill="#277297" stroke="#277297"></path><path d="M437.7 0L419.3 0L418.3 77.2Z" fill="#081a28" stroke="#081a28"></path><path d="M419.3 0L402.9 0L418.3 77.2Z" fill="#1d4e6b" stroke="#1d4e6b"></path><path d="M201.8 359.2L294.6 419.4L246.2 330.1Z" fill="#15384f" stroke="#15384f"></path><path d="M205.5 151.6L208.8 162.6L234.8 136.5Z" fill="#19435d" stroke="#19435d"></path><path d="M234.8 136.5L208.8 162.6L260.2 162.5Z" fill="#205a7a" stroke="#205a7a"></path><path d="M206.8 318.1L201.8 359.2L246.2 330.1Z" fill="#0c2435" stroke="#0c2435"></path><path d="M183.5 398.4L201.8 359.2L167.1 361.1Z" fill="#19435d" stroke="#19435d"></path><path d="M592.8 0L557.4 0L572.4 43.2Z" fill="#0c2435" stroke="#0c2435"></path><path d="M547.1 11.2L557.4 0L486.1 0Z" fill="#00101c" stroke="#00101c"></path><path d="M592.8 0L610.8 67.2L626.2 62.2Z" fill="#19435d" stroke="#19435d"></path><path d="M330.6 525.8L368.9 518.7L347.6 487.5Z" fill="#205a7a" stroke="#205a7a"></path><path d="M368.9 518.7L374.9 537.8L411.3 518.7Z" fill="#1d4e6b" stroke="#1d4e6b"></path><path d="M677.2 473.7L702.2 432.4L653.2 421.5Z" fill="#112e42" stroke="#112e42"></path><path d="M683.5 410.4L770.9 392.2L705.5 346.2Z" fill="#277297" stroke="#277297"></path><path d="M766.9 249.9L697.2 245.8L693.5 271.9Z" fill="#15384f" stroke="#15384f"></path><path d="M725.5 187.6L737.5 169.5L658.2 147.6Z" fill="#19435d" stroke="#19435d"></path><path d="M750.9 220.8L737.5 169.5L725.5 187.6Z" fill="#297ea6" stroke="#297ea6"></path><path d="M209.5 99.5L205.5 151.6L234.8 136.5Z" fill="#081a28" stroke="#081a28"></path><path d="M208.8 162.6L177.1 199.8L205.5 236.9Z" fill="#0c2435" stroke="#0c2435"></path><path d="M128.1 286.9L167.1 361.1L206.8 318.1Z" fill="#246688" stroke="#246688"></path><path d="M216.8 432.5L235.8 442.4L294.6 419.4Z" fill="#19435d" stroke="#19435d"></path><path d="M272.8 504.7L347.6 487.5L313.2 436.4Z" fill="#081a28" stroke="#081a28"></path><path d="M272.8 504.7L313.2 436.4L253.2 446.5Z" fill="#1d4e6b" stroke="#1d4e6b"></path><path d="M621.8 492.5L677.2 473.7L653.2 421.5Z" fill="#0c2435" stroke="#0c2435"></path><path d="M654.8 502.7L677.2 473.7L621.8 492.5Z" fill="#112e42" stroke="#112e42"></path><path d="M654.8 502.7L621.8 492.5L645.8 519.8Z" fill="#00101c" stroke="#00101c"></path><path d="M330.6 525.8L360.6 543.7L368.9 518.7Z" fill="#205a7a" stroke="#205a7a"></path><path d="M482.7 573.8L440.7 495.7L411.3 518.7Z" fill="#0c2435" stroke="#0c2435"></path><path d="M482.7 573.8L411.3 518.7L441.7 600Z" fill="#19435d" stroke="#19435d"></path><path d="M545.1 523.7L545.1 555.8L571.4 513.7Z" fill="#00101c" stroke="#00101c"></path><path d="M635.2 0L592.8 0L626.2 62.2Z" fill="#1d4e6b" stroke="#1d4e6b"></path><path d="M635.2 0L626.2 62.2L691.5 12.2Z" fill="#205a7a" stroke="#205a7a"></path><path d="M645.8 519.8L621.8 492.5L571.4 513.7Z" fill="#1d4e6b" stroke="#1d4e6b"></path><path d="M176.1 180.6L177.1 199.8L208.8 162.6Z" fill="#1d4e6b" stroke="#1d4e6b"></path><path d="M782.3 306.9L694.5 300.1L731.9 334.1Z" fill="#081a28" stroke="#081a28"></path><path d="M782.3 306.9L766.9 249.9L694.5 300.1Z" fill="#112e42" stroke="#112e42"></path><path d="M750.9 220.8L780.9 170.5L737.5 169.5Z" fill="#112e42" stroke="#112e42"></path><path d="M201.8 359.2L216.8 432.5L294.6 419.4Z" fill="#19435d" stroke="#19435d"></path><path d="M235.8 442.4L272.8 504.7L253.2 446.5Z" fill="#00101c" stroke="#00101c"></path><path d="M389.3 589.8L411.3 518.7L374.9 537.8Z" fill="#205a7a" stroke="#205a7a"></path><path d="M205.5 151.6L176.1 180.6L208.8 162.6Z" fill="#277297" stroke="#277297"></path><path d="M129.7 157.6L176.1 180.6L205.5 151.6Z" fill="#081a28" stroke="#081a28"></path><path d="M244.2 529.8L272.8 504.7L235.8 442.4Z" fill="#205a7a" stroke="#205a7a"></path><path d="M330.6 525.8L308.2 544.7L360.6 543.7Z" fill="#1d4e6b" stroke="#1d4e6b"></path><path d="M600.4 575.8L645.8 519.8L571.4 513.7Z" fill="#0c2435" stroke="#0c2435"></path><path d="M654.8 502.7L690.5 484.7L677.2 473.7Z" fill="#1d4e6b" stroke="#1d4e6b"></path><path d="M189.5 41.2L209.5 99.5L258.8 98.3Z" fill="#112e42" stroke="#112e42"></path><path d="M258.8 98.3L209.5 99.5L234.8 136.5Z" fill="#205a7a" stroke="#205a7a"></path><path d="M261.8 21.2L258.8 98.3L303.6 57.3Z" fill="#15384f" stroke="#15384f"></path><path d="M297.6 0L303.6 57.3L357.9 25.2Z" fill="#00101c" stroke="#00101c"></path><path d="M698.2 551.8L690.5 484.7L654.8 502.7Z" fill="#112e42" stroke="#112e42"></path><path d="M677.2 473.7L690.5 484.7L702.2 432.4Z" fill="#15384f" stroke="#15384f"></path><path d="M776.3 352.1L782.3 306.9L731.9 334.1Z" fill="#277297" stroke="#277297"></path><path d="M201.8 359.2L183.5 398.4L216.8 432.5Z" fill="#15384f" stroke="#15384f"></path><path d="M173.5 523.8L244.2 529.8L235.8 442.4Z" fill="#15384f" stroke="#15384f"></path><path d="M167.1 361.1L201.8 359.2L206.8 318.1Z" fill="#112e42" stroke="#112e42"></path><path d="M212.5 249.8L205.5 236.9L128.1 286.9Z" fill="#277297" stroke="#277297"></path><path d="M151.5 369.2L167.1 361.1L114.1 347.2Z" fill="#00101c" stroke="#00101c"></path><path d="M731.9 334.1L705.5 346.2L770.9 392.2Z" fill="#205a7a" stroke="#205a7a"></path><path d="M691.5 12.2L626.2 62.2L676.2 101.3Z" fill="#112e42" stroke="#112e42"></path><path d="M272.8 504.7L308.2 544.7L330.6 525.8Z" fill="#00101c" stroke="#00101c"></path><path d="M360.6 543.7L389.3 589.8L374.9 537.8Z" fill="#0c2435" stroke="#0c2435"></path><path d="M402.9 0L297.6 0L357.9 25.2Z" fill="#1d4e6b" stroke="#1d4e6b"></path><path d="M770.9 392.2L683.5 410.4L702.2 432.4Z" fill="#277297" stroke="#277297"></path><path d="M297.6 0L261.8 21.2L303.6 57.3Z" fill="#297ea6" stroke="#297ea6"></path><path d="M748.5 444.5L770.9 392.2L702.2 432.4Z" fill="#00101c" stroke="#00101c"></path><path d="M770.9 392.2L774.9 382.4L731.9 334.1Z" fill="#081a28" stroke="#081a28"></path><path d="M842.6 212.8L802.3 255.8L877.6 269.9Z" fill="#246688" stroke="#246688"></path><path d="M794.3 208.6L780.9 170.5L750.9 220.8Z" fill="#205a7a" stroke="#205a7a"></path><path d="M737.5 169.5L756.9 101.3L675.5 112.3Z" fill="#1d4e6b" stroke="#1d4e6b"></path><path d="M794.3 208.6L750.9 220.8L766.9 249.9Z" fill="#205a7a" stroke="#205a7a"></path><path d="M343.9 600L389.3 589.8L360.6 543.7Z" fill="#0c2435" stroke="#0c2435"></path><path d="M755.9 445.5L748.5 444.5L765.9 502.7Z" fill="#15384f" stroke="#15384f"></path><path d="M690.5 484.7L748.5 444.5L702.2 432.4Z" fill="#081a28" stroke="#081a28"></path><path d="M441.7 600L482.1 600L482.7 573.8Z" fill="#1d4e6b" stroke="#1d4e6b"></path><path d="M482.7 573.8L543.4 600L545.1 555.8Z" fill="#205a7a" stroke="#205a7a"></path><path d="M545.1 555.8L600.4 575.8L571.4 513.7Z" fill="#112e42" stroke="#112e42"></path><path d="M802.3 255.8L794.3 208.6L766.9 249.9Z" fill="#081a28" stroke="#081a28"></path><path d="M802.3 255.8L766.9 249.9L782.3 306.9Z" fill="#297ea6" stroke="#297ea6"></path><path d="M437.3 600L441.7 600L411.3 518.7Z" fill="#297ea6" stroke="#297ea6"></path><path d="M167.1 361.1L151.5 369.2L183.5 398.4Z" fill="#1d4e6b" stroke="#1d4e6b"></path><path d="M173.5 523.8L235.8 442.4L216.8 432.5Z" fill="#15384f" stroke="#15384f"></path><path d="M272.8 504.7L244.2 529.8L308.2 544.7Z" fill="#00101c" stroke="#00101c"></path><path d="M128.1 286.9L205.5 236.9L108.7 255.8Z" fill="#00101c" stroke="#00101c"></path><path d="M389.3 589.8L437.3 600L411.3 518.7Z" fill="#00101c" stroke="#00101c"></path><path d="M543.4 600L600.4 575.8L545.1 555.8Z" fill="#246688" stroke="#246688"></path><path d="M645.8 519.8L698.2 551.8L654.8 502.7Z" fill="#277297" stroke="#277297"></path><path d="M787.9 167.6L756.9 101.3L780.9 170.5Z" fill="#15384f" stroke="#15384f"></path><path d="M780.9 170.5L756.9 101.3L737.5 169.5Z" fill="#0c2435" stroke="#0c2435"></path><path d="M802.3 255.8L782.3 306.9L877.6 269.9Z" fill="#297ea6" stroke="#297ea6"></path><path d="M842.6 212.8L787.9 167.6L794.3 208.6Z" fill="#081a28" stroke="#081a28"></path><path d="M794.3 208.6L787.9 167.6L780.9 170.5Z" fill="#246688" stroke="#246688"></path><path d="M297.6 0L265.2 0L261.8 21.2Z" fill="#205a7a" stroke="#205a7a"></path><path d="M189.5 41.2L177.5 95.3L209.5 99.5Z" fill="#15384f" stroke="#15384f"></path><path d="M765.9 502.7L748.5 444.5L690.5 484.7Z" fill="#246688" stroke="#246688"></path><path d="M748.5 444.5L755.9 445.5L770.9 392.2Z" fill="#081a28" stroke="#081a28"></path><path d="M819.3 437.4L841.3 377.2L774.9 382.4Z" fill="#0c2435" stroke="#0c2435"></path><path d="M189.5 41.2L258.8 98.3L261.8 21.2Z" fill="#112e42" stroke="#112e42"></path><path d="M209.5 99.5L177.5 95.3L205.5 151.6Z" fill="#19435d" stroke="#19435d"></path><path d="M108.7 255.8L205.5 236.9L177.1 199.8Z" fill="#246688" stroke="#246688"></path><path d="M482.1 600L543.4 600L482.7 573.8Z" fill="#112e42" stroke="#112e42"></path><path d="M110.1 176.5L177.1 199.8L176.1 180.6Z" fill="#277297" stroke="#277297"></path><path d="M756.9 101.3L691.5 12.2L676.2 101.3Z" fill="#00101c" stroke="#00101c"></path><path d="M156.1 460.5L216.8 432.5L183.5 398.4Z" fill="#112e42" stroke="#112e42"></path><path d="M334.6 600L343.9 600L360.6 543.7Z" fill="#205a7a" stroke="#205a7a"></path><path d="M74.7 405.4L152.1 410.4L151.5 369.2Z" fill="#1d4e6b" stroke="#1d4e6b"></path><path d="M151.5 369.2L152.1 410.4L183.5 398.4Z" fill="#1d4e6b" stroke="#1d4e6b"></path><path d="M265.2 0L241.8 0L261.8 21.2Z" fill="#277297" stroke="#277297"></path><path d="M334.6 600L360.6 543.7L308.2 544.7Z" fill="#15384f" stroke="#15384f"></path><path d="M389.3 589.8L343.9 600L437.3 600Z" fill="#15384f" stroke="#15384f"></path><path d="M139.1 106.3L205.5 151.6L177.5 95.3Z" fill="#0c2435" stroke="#0c2435"></path><path d="M139.1 106.3L129.7 157.6L205.5 151.6Z" fill="#19435d" stroke="#19435d"></path><path d="M259.2 600L334.6 600L308.2 544.7Z" fill="#081a28" stroke="#081a28"></path><path d="M543.4 600L605.8 600L600.4 575.8Z" fill="#00101c" stroke="#00101c"></path><path d="M637.2 600L698.2 551.8L645.8 519.8Z" fill="#112e42" stroke="#112e42"></path><path d="M110.1 176.5L108.7 255.8L177.1 199.8Z" fill="#19435d" stroke="#19435d"></path><path d="M107.7 329.2L114.1 347.2L167.1 361.1Z" fill="#081a28" stroke="#081a28"></path><path d="M226.5 0L189.5 41.2L261.8 21.2Z" fill="#1d4e6b" stroke="#1d4e6b"></path><path d="M108.7 255.8L106.7 269.9L128.1 286.9Z" fill="#297ea6" stroke="#297ea6"></path><path d="M241.8 0L226.5 0L261.8 21.2Z" fill="#00101c" stroke="#00101c"></path><path d="M107.7 329.2L167.1 361.1L128.1 286.9Z" fill="#081a28" stroke="#081a28"></path><path d="M637.2 600L645.8 519.8L600.4 575.8Z" fill="#00101c" stroke="#00101c"></path><path d="M106.7 269.9L107.7 329.2L128.1 286.9Z" fill="#297ea6" stroke="#297ea6"></path><path d="M149.5 466.5L156.1 460.5L152.1 410.4Z" fill="#246688" stroke="#246688"></path><path d="M152.1 410.4L156.1 460.5L183.5 398.4Z" fill="#297ea6" stroke="#297ea6"></path><path d="M189.5 41.2L139.1 106.3L177.5 95.3Z" fill="#0c2435" stroke="#0c2435"></path><path d="M129.7 157.6L110.1 176.5L176.1 180.6Z" fill="#00101c" stroke="#00101c"></path><path d="M75.7 153.5L110.1 176.5L129.7 157.6Z" fill="#277297" stroke="#277297"></path><path d="M108.7 255.8L84.4 240.8L106.7 269.9Z" fill="#297ea6" stroke="#297ea6"></path><path d="M605.8 600L637.2 600L600.4 575.8Z" fill="#00101c" stroke="#00101c"></path><path d="M776.9 41.2L691.5 12.2L756.9 101.3Z" fill="#297ea6" stroke="#297ea6"></path><path d="M776.9 41.2L724.5 0L691.5 12.2Z" fill="#246688" stroke="#246688"></path><path d="M691.5 12.2L724.5 0L635.2 0Z" fill="#081a28" stroke="#081a28"></path><path d="M89.7 433.5L149.5 466.5L152.1 410.4Z" fill="#1d4e6b" stroke="#1d4e6b"></path><path d="M156.1 460.5L173.5 523.8L216.8 432.5Z" fill="#1d4e6b" stroke="#1d4e6b"></path><path d="M244.2 529.8L259.2 600L308.2 544.7Z" fill="#00101c" stroke="#00101c"></path><path d="M89.7 433.5L152.1 410.4L74.7 405.4Z" fill="#297ea6" stroke="#297ea6"></path><path d="M189.5 41.2L181.1 26.2L139.1 106.3Z" fill="#205a7a" stroke="#205a7a"></path><path d="M226.5 0L181.1 26.2L189.5 41.2Z" fill="#15384f" stroke="#15384f"></path><path d="M792.3 487.7L765.9 502.7L766.3 530.8Z" fill="#15384f" stroke="#15384f"></path><path d="M698.2 551.8L765.9 502.7L690.5 484.7Z" fill="#19435d" stroke="#19435d"></path><path d="M819.3 437.4L774.9 382.4L770.9 392.2Z" fill="#205a7a" stroke="#205a7a"></path><path d="M841.3 377.2L782.3 306.9L776.3 352.1Z" fill="#112e42" stroke="#112e42"></path><path d="M802.3 255.8L842.6 212.8L794.3 208.6Z" fill="#00101c" stroke="#00101c"></path><path d="M787.9 167.6L808.3 97.3L756.9 101.3Z" fill="#297ea6" stroke="#297ea6"></path><path d="M841.3 377.2L776.3 352.1L774.9 382.4Z" fill="#277297" stroke="#277297"></path><path d="M827.6 137.5L808.3 97.3L787.9 167.6Z" fill="#081a28" stroke="#081a28"></path><path d="M842.6 212.8L827.6 137.5L787.9 167.6Z" fill="#1d4e6b" stroke="#1d4e6b"></path><path d="M794.3 47.2L776.9 41.2L756.9 101.3Z" fill="#297ea6" stroke="#297ea6"></path><path d="M110.1 176.5L84.4 240.8L108.7 255.8Z" fill="#15384f" stroke="#15384f"></path><path d="M106.7 269.9L86.4 327.1L107.7 329.2Z" fill="#246688" stroke="#246688"></path><path d="M29.4 305.9L86.4 327.1L106.7 269.9Z" fill="#112e42" stroke="#112e42"></path><path d="M107.7 329.2L79.7 345.1L114.1 347.2Z" fill="#112e42" stroke="#112e42"></path><path d="M776.9 41.2L745.9 0L724.5 0Z" fill="#297ea6" stroke="#297ea6"></path><path d="M819.3 437.4L770.9 392.2L755.9 445.5Z" fill="#0c2435" stroke="#0c2435"></path><path d="M29.4 305.9L84.4 329.2L86.4 327.1Z" fill="#277297" stroke="#277297"></path><path d="M86.4 327.1L84.4 329.2L107.7 329.2Z" fill="#0c2435" stroke="#0c2435"></path><path d="M792.3 487.7L819.3 437.4L755.9 445.5Z" fill="#15384f" stroke="#15384f"></path><path d="M158.5 507.7L156.1 460.5L149.5 466.5Z" fill="#1d4e6b" stroke="#1d4e6b"></path><path d="M158.5 507.7L173.5 523.8L156.1 460.5Z" fill="#112e42" stroke="#112e42"></path><path d="M827.6 137.5L827.3 116.5L808.3 97.3Z" fill="#277297" stroke="#277297"></path><path d="M808.3 97.3L794.3 47.2L756.9 101.3Z" fill="#277297" stroke="#277297"></path><path d="M900 123.3L827.3 116.5L827.6 137.5Z" fill="#081a28" stroke="#081a28"></path><path d="M142.1 488.7L158.5 507.7L149.5 466.5Z" fill="#081a28" stroke="#081a28"></path><path d="M766.3 530.8L765.9 502.7L698.2 551.8Z" fill="#277297" stroke="#277297"></path><path d="M765.9 502.7L792.3 487.7L755.9 445.5Z" fill="#205a7a" stroke="#205a7a"></path><path d="M637.2 600L676.5 600L698.2 551.8Z" fill="#081a28" stroke="#081a28"></path><path d="M221.5 600L259.2 600L244.2 529.8Z" fill="#246688" stroke="#246688"></path><path d="M827.3 116.5L825.6 106.3L808.3 97.3Z" fill="#277297" stroke="#277297"></path><path d="M86.4 470.7L142.1 488.7L149.5 466.5Z" fill="#277297" stroke="#277297"></path><path d="M173.5 523.8L196.8 553.8L244.2 529.8Z" fill="#246688" stroke="#246688"></path><path d="M221.5 600L196.8 553.8L219.8 600Z" fill="#112e42" stroke="#112e42"></path><path d="M196.8 553.8L159.1 600L219.8 600Z" fill="#15384f" stroke="#15384f"></path><path d="M844.6 21.2L794.3 47.2L808.3 97.3Z" fill="#1d4e6b" stroke="#1d4e6b"></path><path d="M776.9 41.2L812.6 0L745.9 0Z" fill="#112e42" stroke="#112e42"></path><path d="M29.4 305.9L79.7 345.1L84.4 329.2Z" fill="#15384f" stroke="#15384f"></path><path d="M84.4 329.2L79.7 345.1L107.7 329.2Z" fill="#00101c" stroke="#00101c"></path><path d="M763.9 546.8L766.3 530.8L698.2 551.8Z" fill="#081a28" stroke="#081a28"></path><path d="M792.3 487.7L824.3 448.5L819.3 437.4Z" fill="#1d4e6b" stroke="#1d4e6b"></path><path d="M819.3 437.4L837.6 439.4L841.3 377.2Z" fill="#112e42" stroke="#112e42"></path><path d="M837.6 439.4L824.3 448.5L852.6 452.5Z" fill="#15384f" stroke="#15384f"></path><path d="M676.5 600L724.5 574.8L698.2 551.8Z" fill="#19435d" stroke="#19435d"></path><path d="M724.5 574.8L763.9 546.8L698.2 551.8Z" fill="#00101c" stroke="#00101c"></path><path d="M766.3 530.8L815.6 535.8L792.3 487.7Z" fill="#246688" stroke="#246688"></path><path d="M852.6 452.5L824.3 448.5L792.3 487.7Z" fill="#0c2435" stroke="#0c2435"></path><path d="M824.3 448.5L837.6 439.4L819.3 437.4Z" fill="#00101c" stroke="#00101c"></path><path d="M900 399.2L868.6 342.1L841.3 377.2Z" fill="#297ea6" stroke="#297ea6"></path><path d="M841.3 377.2L868.6 342.1L782.3 306.9Z" fill="#112e42" stroke="#112e42"></path><path d="M842.6 212.8L875.6 213.6L827.6 137.5Z" fill="#205a7a" stroke="#205a7a"></path><path d="M827.3 116.5L900 123.3L825.6 106.3Z" fill="#205a7a" stroke="#205a7a"></path><path d="M110.1 176.5L54.4 213.6L84.4 240.8Z" fill="#297ea6" stroke="#297ea6"></path><path d="M84.4 240.8L29.4 305.9L106.7 269.9Z" fill="#205a7a" stroke="#205a7a"></path><path d="M87.7 114.3L75.7 153.5L129.7 157.6Z" fill="#081a28" stroke="#081a28"></path><path d="M87.7 114.3L129.7 157.6L139.1 106.3Z" fill="#0c2435" stroke="#0c2435"></path><path d="M868.6 342.1L877.6 269.9L782.3 306.9Z" fill="#297ea6" stroke="#297ea6"></path><path d="M63.4 77.2L87.7 114.3L139.1 106.3Z" fill="#246688" stroke="#246688"></path><path d="M877.6 269.9L875.6 213.6L842.6 212.8Z" fill="#112e42" stroke="#112e42"></path><path d="M74.7 405.4L151.5 369.2L114.1 347.2Z" fill="#112e42" stroke="#112e42"></path><path d="M196.8 553.8L173.5 523.8L159.1 600Z" fill="#112e42" stroke="#112e42"></path><path d="M173.5 523.8L103.1 589.8L159.1 600Z" fill="#297ea6" stroke="#297ea6"></path><path d="M196.8 553.8L221.5 600L244.2 529.8Z" fill="#081a28" stroke="#081a28"></path><path d="M90.7 528.8L158.5 507.7L142.1 488.7Z" fill="#19435d" stroke="#19435d"></path><path d="M79.7 345.1L74.7 405.4L114.1 347.2Z" fill="#1d4e6b" stroke="#1d4e6b"></path><path d="M0 398.2L74.7 405.4L79.7 345.1Z" fill="#0c2435" stroke="#0c2435"></path><path d="M46.4 144.5L54.4 213.6L75.7 153.5Z" fill="#19435d" stroke="#19435d"></path><path d="M75.7 153.5L54.4 213.6L110.1 176.5Z" fill="#0c2435" stroke="#0c2435"></path><path d="M900 399.2L885.6 329.2L868.6 342.1Z" fill="#00101c" stroke="#00101c"></path><path d="M868.6 342.1L885.6 329.2L877.6 269.9Z" fill="#15384f" stroke="#15384f"></path><path d="M877.6 269.9L900 245.9L875.6 213.6Z" fill="#19435d" stroke="#19435d"></path><path d="M181.1 26.2L143.1 0L139.1 106.3Z" fill="#297ea6" stroke="#297ea6"></path><path d="M226.5 0L143.1 0L181.1 26.2Z" fill="#19435d" stroke="#19435d"></path><path d="M74.7 405.4L83.4 448.4L89.7 433.5Z" fill="#246688" stroke="#246688"></path><path d="M89.7 433.5L83.4 448.4L149.5 466.5Z" fill="#19435d" stroke="#19435d"></path><path d="M815.6 535.8L852.6 452.5L792.3 487.7Z" fill="#277297" stroke="#277297"></path><path d="M900 415.4L900 399.2L841.3 377.2Z" fill="#205a7a" stroke="#205a7a"></path><path d="M64.4 485.5L86.4 470.7L83.4 448.4Z" fill="#0c2435" stroke="#0c2435"></path><path d="M83.4 448.4L86.4 470.7L149.5 466.5Z" fill="#0c2435" stroke="#0c2435"></path><path d="M900 300.1L900 245.9L877.6 269.9Z" fill="#0c2435" stroke="#0c2435"></path><path d="M875.6 213.6L900 199.6L827.6 137.5Z" fill="#15384f" stroke="#15384f"></path><path d="M819.3 0L812.6 0L794.3 47.2Z" fill="#205a7a" stroke="#205a7a"></path><path d="M885.6 329.2L900 300.1L877.6 269.9Z" fill="#19435d" stroke="#19435d"></path><path d="M900 399.2L900 300.1L885.6 329.2Z" fill="#112e42" stroke="#112e42"></path><path d="M900 245.9L900 220.8L875.6 213.6Z" fill="#081a28" stroke="#081a28"></path><path d="M819.3 0L794.3 47.2L844.6 21.2Z" fill="#15384f" stroke="#15384f"></path><path d="M794.3 47.2L812.6 0L776.9 41.2Z" fill="#00101c" stroke="#00101c"></path><path d="M900 220.8L900 199.6L875.6 213.6Z" fill="#00101c" stroke="#00101c"></path><path d="M787.9 600L815.6 535.8L763.9 546.8Z" fill="#205a7a" stroke="#205a7a"></path><path d="M763.9 546.8L815.6 535.8L766.3 530.8Z" fill="#205a7a" stroke="#205a7a"></path><path d="M787.9 600L763.9 546.8L724.5 574.8Z" fill="#19435d" stroke="#19435d"></path><path d="M87.7 114.3L46.4 144.5L75.7 153.5Z" fill="#00101c" stroke="#00101c"></path><path d="M54.4 213.6L29.4 305.9L84.4 240.8Z" fill="#205a7a" stroke="#205a7a"></path><path d="M63.4 77.2L46.4 144.5L87.7 114.3Z" fill="#297ea6" stroke="#297ea6"></path><path d="M0 287.9L29.4 305.9L54.4 213.6Z" fill="#205a7a" stroke="#205a7a"></path><path d="M0 445.5L64.4 485.5L83.4 448.4Z" fill="#246688" stroke="#246688"></path><path d="M844.6 21.2L808.3 97.3L825.6 106.3Z" fill="#081a28" stroke="#081a28"></path><path d="M143.1 0L112.7 0L139.1 106.3Z" fill="#246688" stroke="#246688"></path><path d="M112.7 0L63.4 77.2L139.1 106.3Z" fill="#246688" stroke="#246688"></path><path d="M900 85.2L844.6 21.2L825.6 106.3Z" fill="#205a7a" stroke="#205a7a"></path><path d="M900 415.4L837.6 439.4L852.6 452.5Z" fill="#00101c" stroke="#00101c"></path><path d="M900 415.4L841.3 377.2L837.6 439.4Z" fill="#112e42" stroke="#112e42"></path><path d="M90.7 528.8L173.5 523.8L158.5 507.7Z" fill="#081a28" stroke="#081a28"></path><path d="M900 199.6L900 130.5L827.6 137.5Z" fill="#112e42" stroke="#112e42"></path><path d="M900 130.5L900 123.3L827.6 137.5Z" fill="#1d4e6b" stroke="#1d4e6b"></path><path d="M900 468.5L900 415.4L852.6 452.5Z" fill="#205a7a" stroke="#205a7a"></path><path d="M0 445.5L83.4 448.4L74.7 405.4Z" fill="#00101c" stroke="#00101c"></path><path d="M86.4 470.7L90.7 528.8L142.1 488.7Z" fill="#205a7a" stroke="#205a7a"></path><path d="M76.7 514.7L90.7 528.8L86.4 470.7Z" fill="#277297" stroke="#277297"></path><path d="M676.5 600L787.9 600L724.5 574.8Z" fill="#246688" stroke="#246688"></path><path d="M900 493.7L900 468.5L852.6 452.5Z" fill="#277297" stroke="#277297"></path><path d="M64.4 485.5L76.7 514.7L86.4 470.7Z" fill="#081a28" stroke="#081a28"></path><path d="M90.7 528.8L103.1 589.8L173.5 523.8Z" fill="#0c2435" stroke="#0c2435"></path><path d="M0 200.8L0 287.9L54.4 213.6Z" fill="#0c2435" stroke="#0c2435"></path><path d="M29.4 305.9L0 325.1L79.7 345.1Z" fill="#1d4e6b" stroke="#1d4e6b"></path><path d="M0 200.8L54.4 213.6L46.4 144.5Z" fill="#00101c" stroke="#00101c"></path><path d="M900 123.3L900 85.2L825.6 106.3Z" fill="#0c2435" stroke="#0c2435"></path><path d="M112.7 0L75.7 10.2L63.4 77.2Z" fill="#205a7a" stroke="#205a7a"></path><path d="M0 158.6L0 200.8L46.4 144.5Z" fill="#297ea6" stroke="#297ea6"></path><path d="M0 287.9L0 325.1L29.4 305.9Z" fill="#19435d" stroke="#19435d"></path><path d="M0 158.6L46.4 144.5L0 120.3Z" fill="#277297" stroke="#277297"></path><path d="M860.6 544.7L852.6 452.5L815.6 535.8Z" fill="#1d4e6b" stroke="#1d4e6b"></path><path d="M787.9 600L811.3 600L815.6 535.8Z" fill="#277297" stroke="#277297"></path><path d="M0 502.7L76.7 514.7L64.4 485.5Z" fill="#00101c" stroke="#00101c"></path><path d="M0 502.7L72.4 535.8L76.7 514.7Z" fill="#205a7a" stroke="#205a7a"></path><path d="M76.7 514.7L72.4 535.8L90.7 528.8Z" fill="#112e42" stroke="#112e42"></path><path d="M851.6 600L860.6 544.7L815.6 535.8Z" fill="#297ea6" stroke="#297ea6"></path><path d="M0 120.3L46.4 144.5L0 103.5Z" fill="#00101c" stroke="#00101c"></path><path d="M0 325.1L0 398.2L79.7 345.1Z" fill="#0c2435" stroke="#0c2435"></path><path d="M72.4 535.8L103.1 589.8L90.7 528.8Z" fill="#19435d" stroke="#19435d"></path><path d="M0 398.2L0 400.4L74.7 405.4Z" fill="#297ea6" stroke="#297ea6"></path><path d="M860.6 544.7L900 493.7L852.6 452.5Z" fill="#00101c" stroke="#00101c"></path><path d="M10.4 80.3L46.4 144.5L63.4 77.2Z" fill="#205a7a" stroke="#205a7a"></path><path d="M0 60.2L10.4 80.3L63.4 77.2Z" fill="#205a7a" stroke="#205a7a"></path><path d="M10.4 80.3L0 103.5L46.4 144.5Z" fill="#15384f" stroke="#15384f"></path><path d="M12.4 600L94.7 600L72.4 535.8Z" fill="#246688" stroke="#246688"></path><path d="M72.4 535.8L94.7 600L103.1 589.8Z" fill="#205a7a" stroke="#205a7a"></path><path d="M103.1 589.8L94.7 600L159.1 600Z" fill="#246688" stroke="#246688"></path><path d="M0 400.4L0 445.5L74.7 405.4Z" fill="#081a28" stroke="#081a28"></path><path d="M75.7 10.2L41.4 0L63.4 77.2Z" fill="#1d4e6b" stroke="#1d4e6b"></path><path d="M10.4 80.3L0 60.2L0 103.5Z" fill="#00101c" stroke="#00101c"></path><path d="M112.7 0L41.4 0L75.7 10.2Z" fill="#277297" stroke="#277297"></path><path d="M811.3 600L851.6 600L815.6 535.8Z" fill="#15384f" stroke="#15384f"></path><path d="M860.6 544.7L900 539.8L900 493.7Z" fill="#205a7a" stroke="#205a7a"></path><path d="M900 85.2L900 0L844.6 21.2Z" fill="#081a28" stroke="#081a28"></path><path d="M844.6 21.2L900 0L819.3 0Z" fill="#00101c" stroke="#00101c"></path><path d="M900 600L900 539.8L860.6 544.7Z" fill="#205a7a" stroke="#205a7a"></path><path d="M41.4 0L0 60.2L63.4 77.2Z" fill="#297ea6" stroke="#297ea6"></path><path d="M0 445.5L0 502.7L64.4 485.5Z" fill="#205a7a" stroke="#205a7a"></path><path d="M41.4 0L0 0L0 60.2Z" fill="#297ea6" stroke="#297ea6"></path><path d="M0 502.7L0 538.8L72.4 535.8Z" fill="#00101c" stroke="#00101c"></path><path d="M851.6 600L900 600L860.6 544.7Z" fill="#205a7a" stroke="#205a7a"></path><path d="M0 538.8L12.4 600L72.4 535.8Z" fill="#081a28" stroke="#081a28"></path><path d="M0 538.8L0 600L12.4 600Z" fill="#081a28" stroke="#081a28"></path></g></svg>