<svg id="visual" viewBox="0 0 900 600" width="900" height="600" xmlns="http://www.w3.org/2000/svg" xmlns:xlink="http://www.w3.org/1999/xlink" version="1.1"><rect x="0" y="0" width="900" height="600" fill="#ffffff"></rect><path d="M0 580L21.5 576.5C43 573 86 566 128.8 562.3C171.7 558.7 214.3 558.3 257.2 558C300 557.7 343 557.3 385.8 560.8C428.7 564.3 471.3 571.7 514.2 572.7C557 573.7 600 568.3 642.8 567.7C685.7 567 728.3 571 771.2 571.2C814 571.3 857 567.7 878.5 565.8L900 564L900 601L878.5 601C857 601 814 601 771.2 601C728.3 601 685.7 601 642.8 601C600 601 557 601 514.2 601C471.3 601 428.7 601 385.8 601C343 601 300 601 257.2 601C214.3 601 171.7 601 128.8 601C86 601 43 601 21.5 601L0 601Z" fill="#ffffff" stroke-linecap="round" stroke-linejoin="miter"></path></svg>