<svg id="visual" viewBox="0 0 900 600" width="900" height="600" xmlns="http://www.w3.org/2000/svg" xmlns:xlink="http://www.w3.org/1999/xlink" version="1.1"><rect x="0" y="0" width="900" height="600" fill="#002233"></rect><path d="M0 505L21.5 483.7C43 462.3 86 419.7 128.8 412C171.7 404.3 214.3 431.7 257.2 454.2C300 476.7 343 494.3 385.8 485.2C428.7 476 471.3 440 514.2 439.3C557 438.7 600 473.3 642.8 471.7C685.7 470 728.3 432 771.2 429.7C814 427.3 857 460.7 878.5 477.3L900 494L900 601L878.5 601C857 601 814 601 771.2 601C728.3 601 685.7 601 642.8 601C600 601 557 601 514.2 601C471.3 601 428.7 601 385.8 601C343 601 300 601 257.2 601C214.3 601 171.7 601 128.8 601C86 601 43 601 21.5 601L0 601Z" fill="#b000ff" stroke-linecap="round" stroke-linejoin="miter"></path></svg>